<svg width="30" height="30" viewBox="0 0 30 30" fill="none" xmlns="http://www.w3.org/2000/svg">
<path d="M29.0067 7.81471H28.535C28.9924 6.24036 28.4296 4.60613 27.2214 3.63078C25.6422 2.35584 23.3693 2.47655 21.9341 3.91179C21.4792 4.36671 0.615408 25.2305 0.290917 25.555C-0.0969723 25.9429 -0.0969723 26.5717 0.290917 26.9596C0.678747 27.3474 1.30763 27.3475 1.69546 26.9596L5.88648 22.7685C10.2444 26.4131 16.7559 26.1851 20.843 22.0981C23.317 19.6241 24.3756 16.2629 24.0202 13.0293L27.2446 9.80103H29.0068C29.5553 9.80103 29.9999 9.35636 29.9999 8.80787C29.9999 8.25938 29.5552 7.81471 29.0067 7.81471ZM16.117 17.3716C14.6104 18.8782 12.3333 19.0431 10.661 17.994L16.7389 11.9161C17.8019 13.6185 17.5955 15.8932 16.117 17.3716ZM19.4385 20.6934C16.1244 24.0075 10.8706 24.2288 7.29724 21.3577L9.23065 19.4243C11.6725 21.211 15.2124 21.0852 17.5215 18.776C19.7771 16.5204 19.9928 12.986 18.1693 10.4856L20.1033 8.55152C22.9745 12.125 22.7529 17.3791 19.4385 20.6934ZM21.5141 7.14083L23.3387 5.31628C24.054 4.60103 25.1867 4.54103 25.9735 5.1763C26.8876 5.91429 26.9592 7.27612 26.13 8.10604L23.5152 10.7239C23.088 9.44285 22.4209 8.22504 21.5141 7.14083ZM25.6738 6.90504C25.6743 6.3071 25.1901 5.82194 24.5921 5.82142C23.9942 5.82089 23.509 6.30516 23.5085 6.90311C23.508 7.50106 23.9922 7.98621 24.5902 7.98674C25.1881 7.98727 25.6733 7.50293 25.6738 6.90504Z" fill="black"/>
</svg>
