<svg width="30" height="30" viewBox="0 0 30 30" fill="none" xmlns="http://www.w3.org/2000/svg">
<path d="M23.0333 7.38445C23.0277 7.38292 23.0222 7.38146 23.0166 7.38005C21.8104 4.9599 19.3552 3.42468 16.6153 3.42468C12.0783 3.42468 8.64721 7.62638 9.62514 12.1102C9.07066 12.5954 8.57895 13.0659 8.15561 13.4952V12.8507C8.15561 8.90595 4.94631 5.6966 1.00148 5.6966C0.448418 5.6966 0 6.14501 0 6.69814V11.3789C0 13.1251 0.575156 14.7829 1.63594 16.136C0.575156 17.4889 0 19.1467 0 20.893V25.5738C0 26.1269 0.448418 26.5753 1.00154 26.5753C4.94631 26.5753 8.15566 23.366 8.15566 19.4212V18.7772C11.5869 22.2579 16.1706 25.1026 21.0787 25.1026C31.8114 25.1026 33.3408 9.68466 23.0333 7.38445ZM2.00309 24.4745V20.8929C2.00309 19.3635 2.59875 17.9256 3.68021 16.8441C4.07109 16.4534 4.07133 15.8187 3.68021 15.4277C2.59875 14.3462 2.00309 12.9083 2.00309 11.3788V7.79724C4.3657 8.26464 6.15258 10.3527 6.15258 12.8506C6.15258 13.6673 6.15258 18.7351 6.15258 19.4211C6.15258 21.919 4.3657 24.0071 2.00309 24.4745ZM23.1735 22.7774C20.4268 18.7924 20.4234 13.4842 23.1735 9.49441C29.6446 11.5396 29.6462 20.7318 23.1735 22.7774ZM16.6153 5.42771C18.1356 5.42771 19.5344 6.08396 20.4936 7.18259C17.218 7.33148 14.1209 8.72466 11.463 10.6436C11.4277 7.77732 13.7501 5.42771 16.6153 5.42771ZM8.44629 16.1354C11.5544 12.5029 16.2118 9.20777 21.0022 9.17367C18.4799 13.4423 18.4776 18.8256 21.0023 23.0982C16.193 23.0638 11.5409 19.7482 8.44629 16.1354ZM25.6615 14.3362C25.6621 13.7332 25.1737 13.244 24.5708 13.2435C23.9678 13.2429 23.4786 13.7313 23.478 14.3343C23.4775 14.9372 23.9658 15.4264 24.5688 15.427C25.1718 15.4275 25.661 14.9392 25.6615 14.3362Z" fill="black"/>
</svg>
