<svg width="30" height="26" viewBox="0 0 30 26" fill="none" xmlns="http://www.w3.org/2000/svg">
<path d="M29.3791 14.2196C29.211 13.7061 28.6585 13.4264 28.145 13.5942L26.8071 14.0322C26.6578 13.2334 26.4423 12.4246 26.1621 11.6196C28.4414 10.7412 30 8.53875 30 6.01137C30 2.69672 27.3033 0 23.9886 0C21.9146 0 20.0293 1.05135 18.9364 2.75057C16.3701 1.48816 13.6309 1.48758 11.0635 2.75057C9.97061 1.05146 8.08529 0 6.01131 0C2.69666 5.85937e-05 0 2.69672 0 6.01137C0 8.53875 1.55859 10.7412 3.83795 11.6196C3.55793 12.4249 3.34248 13.2337 3.19318 14.0323L1.8549 13.5943C1.34127 13.4264 0.788906 13.7062 0.620801 14.2196C0.452754 14.7332 0.732715 15.2857 1.24617 15.4537L2.95998 16.0147C2.90121 17.321 3.03416 18.651 3.48141 19.8908L1.27922 20.5265C0.760137 20.6763 0.460781 21.2186 0.610664 21.7376C0.760547 22.2569 1.30295 22.5561 1.8218 22.4062L4.39834 21.6624C6.67043 24.8887 11.0931 25.6897 14.9999 25.6897C18.9098 25.6897 23.3303 24.8874 25.6015 21.6624L28.178 22.4061C28.6972 22.5561 29.2395 22.2565 29.3892 21.7376C29.539 21.2185 29.2397 20.6762 28.7206 20.5264L26.5184 19.8908C26.9667 18.6483 27.0984 17.3177 27.0399 16.0147L28.7537 15.4537C29.2673 15.2856 29.5472 14.7331 29.3791 14.2196ZM18.3283 4.63752C18.1072 7.53393 16.6513 9.88289 15 9.88289C13.3487 9.88289 11.8928 7.53404 11.6717 4.63752C13.7794 3.50871 16.0628 3.42434 18.3283 4.63752ZM15 20.0249C13.8531 20.0249 12.9635 19.4524 12.9635 18.9599C12.9635 18.4673 13.8531 17.8949 15 17.8949C16.1469 17.8949 17.0365 18.4673 17.0365 18.9599C17.0365 19.4524 16.1469 20.0249 15 20.0249ZM24.6316 19.3461L22.1814 18.6388C21.6621 18.4887 21.12 18.7883 20.9703 19.3073C20.8204 19.8264 21.1198 20.3687 21.6388 20.5185L23.5645 21.0743C21.7672 23.0394 18.6493 23.6119 15.9783 23.7144V21.8931C17.7294 21.571 18.9931 20.3978 18.9931 18.9598C18.9931 17.2655 17.2392 15.9383 15.0001 15.9383C12.7611 15.9383 11.0071 17.2656 11.0071 18.9598C11.0071 20.3979 12.2708 21.5709 14.0219 21.8931V23.7144C11.3499 23.6118 8.23266 23.0389 6.43576 21.0743L8.36133 20.5185C8.88041 20.3687 9.17977 19.8264 9.02988 19.3073C8.88006 18.7883 8.33813 18.4888 7.81875 18.6388L5.36871 19.346C5.06443 18.5603 4.9108 17.6641 4.9043 16.6511L7.7857 17.5944C8.30074 17.7627 8.85205 17.4812 9.0198 16.969C9.18785 16.4555 8.90789 15.9029 8.39443 15.7349L5.07059 14.6469C5.24877 13.5786 5.56717 12.4789 6.01676 11.3938L6.0266 11.3701C6.28816 10.789 5.93191 10.1154 5.30373 10.0051C3.36434 9.66439 1.95668 7.9848 1.95668 6.01143C1.95668 3.77561 3.77566 1.95662 6.01148 1.95662C7.60588 1.95662 9.03475 2.87777 9.6958 4.31672C9.84615 8.46428 12.0619 11.8394 15 11.8394C18.3083 11.8394 20.1754 7.87371 20.3043 4.31666C20.9654 2.87766 22.3943 1.95656 23.9886 1.95656C26.2245 1.95656 28.0434 3.77555 28.0434 6.01137C28.0434 7.98486 26.6358 9.66445 24.6964 10.0051C24.0792 10.1134 23.7212 10.7676 23.9631 11.3462C24.4237 12.4471 24.7492 13.5629 24.9299 14.6467L21.6057 15.7349C21.0922 15.9029 20.8123 16.4555 20.9803 16.969C21.1484 17.4823 21.7005 17.7624 22.2144 17.5944L25.0959 16.6511C25.0894 17.6641 24.9359 18.5603 24.6316 19.3461ZM11.3299 13.1347C11.3305 12.4199 10.7517 11.84 10.0369 11.8394C9.32221 11.8387 8.7423 12.4176 8.74166 13.1323C8.74102 13.847 9.31986 14.427 10.0346 14.4276C10.7494 14.4283 11.3293 13.8494 11.3299 13.1347ZM21.2075 13.1432C21.2082 12.4285 20.6293 11.8486 19.9146 11.8479C19.1999 11.8473 18.62 12.4262 18.6193 13.1409C18.6187 13.8556 19.1975 14.4355 19.9123 14.4362C20.627 14.4368 21.2069 13.8579 21.2075 13.1432Z" fill="black"/>
</svg>
