<svg width="30" height="30" viewBox="0 0 30 30" fill="none" xmlns="http://www.w3.org/2000/svg">
<path d="M25.1452 15.8935V4.03575C25.1452 1.81048 23.3349 0 21.1095 0C18.8845 0 17.0745 1.81048 17.0745 4.03575V8.78793C15.72 8.44528 14.3383 8.42975 12.9254 8.78969V4.03575C12.9255 1.81048 11.1153 0 8.89042 0C6.66503 0 4.85466 1.81048 4.85466 4.03575V15.8933C3.71109 18.0467 3.08203 20.288 3.08203 22.2327C3.08203 28.2878 8.96518 29.9995 14.9978 29.9999L15 30L15.0022 29.9999C21.0338 29.9995 26.9179 28.2883 26.9179 22.2327C26.9179 20.2786 26.2668 18.0102 25.1452 15.8935ZM19.1675 4.03575C19.1675 2.96454 20.0387 2.09302 21.1095 2.09302C22.1807 2.09302 23.0522 2.96454 23.0522 4.03575V12.7949C21.8653 11.3952 20.5503 10.3178 19.1675 9.595V4.03575ZM6.94769 4.03575C6.94769 2.96454 7.81915 2.09302 8.89042 2.09302C9.96128 2.09302 10.8324 2.96454 10.8324 4.03575V9.60145C9.357 10.3782 8.02499 11.5361 6.94769 12.7998V4.03575ZM15 23.8212L14.2808 23.0675H15.719L15 23.8212ZM16.0465 27.8886V25.7564L18.1107 23.5929C19.0491 22.6097 18.3511 20.9745 16.9901 20.9745H13.0097C11.6506 20.9745 10.9495 22.6083 11.889 23.5928L13.9534 25.7564V27.8885C9.5905 27.7346 5.17505 26.5795 5.17505 22.2325C5.17505 17.6158 9.71589 10.6182 15 10.6182C19.9883 10.6182 24.8249 17.2271 24.8249 22.2325C24.8248 26.5795 20.4095 27.7347 16.0465 27.8886ZM11.0738 17.8702C11.0745 17.1056 10.4552 16.4853 9.69063 16.4846C8.92604 16.4839 8.30565 17.1032 8.30501 17.8678C8.30431 18.6324 8.92358 19.2528 9.68817 19.2534C10.4528 19.2541 11.0731 18.6348 11.0738 17.8702ZM21.6406 17.8795C21.6413 17.1149 21.022 16.4945 20.2574 16.4939C19.4928 16.4932 18.8724 17.1124 18.8718 17.877C18.8711 18.6416 19.4904 19.262 20.2549 19.2627C21.0195 19.2633 21.6399 18.6441 21.6406 17.8795Z" fill="black"/>
</svg>
