<svg width="28" height="31" viewBox="0 0 28 31" fill="none" xmlns="http://www.w3.org/2000/svg">
<mask id="path-1-outside-1_101_39" maskUnits="userSpaceOnUse" x="-0.5" y="-0.5" width="28" height="32" fill="black">
<rect fill="white" x="-0.5" y="-0.5" width="28" height="32"/>
<path d="M26.8213 10.7478C26.8213 9.00201 24.7862 7.63445 22.1883 7.63445C21.0725 7.63445 20.0245 7.89087 19.1929 8.36145C18.3778 7.75816 17.4614 7.28461 16.4742 6.97132C16.8427 6.13807 17.0484 5.19108 17.0484 4.28874C17.0483 1.67148 15.3469 0.5 13.6607 0.5C11.9745 0.5 10.273 1.67148 10.273 4.28867C10.273 5.19102 10.4788 6.138 10.8471 6.97126C9.85996 7.28461 8.9435 7.75816 8.12844 8.36145C7.29677 7.89087 6.24882 7.63439 5.13306 7.63439C2.53508 7.63439 0.5 9.00189 0.5 10.7477C0.5 11.5538 1.15577 12.0957 2.44914 12.3586C3.19213 12.5095 4.10244 12.5644 4.9349 12.5844C4.55185 13.6028 4.34165 14.7052 4.34165 15.8558C4.34165 17.3614 4.70281 19.0684 5.34131 20.7224C4.84841 20.87 4.35643 21.0815 3.89267 21.3493C2.85707 21.9471 2.02625 22.7713 1.5533 23.67C1.03961 24.6461 0.998247 25.6021 1.43695 26.362C1.6098 26.6613 1.8852 26.8687 2.23334 26.9614C2.37901 27.0002 2.53605 27.0187 2.70349 27.0187C3.90812 27.0187 5.6549 26.0673 7.62466 24.9229C7.6457 24.9107 7.66595 24.899 7.68676 24.8869C9.3063 26.941 11.2027 28.1352 13.1438 28.3161V29.9831C13.1438 30.2686 13.3752 30.5001 13.6607 30.5001C13.9462 30.5001 14.1777 30.2686 14.1777 29.9831V28.3161C16.1188 28.1352 18.0152 26.9411 19.6347 24.8869C19.6555 24.899 19.6758 24.9108 19.6969 24.923C21.6667 26.0673 23.4133 27.0187 24.6179 27.0187C24.7853 27.0187 24.9425 27.0003 25.0881 26.9615C25.4362 26.8687 25.7116 26.6614 25.8845 26.362C26.7573 24.8501 25.6786 22.6483 23.4287 21.3494C22.9649 21.0816 22.4729 20.8701 21.9801 20.7225C22.6185 19.0685 22.9797 17.3615 22.9797 15.8559C22.9797 14.7052 22.7695 13.603 22.3865 12.5845C23.219 12.5644 24.1292 12.5096 24.8722 12.3586C26.1655 12.0958 26.8213 11.5538 26.8213 10.7478ZM21.9457 15.8559C21.9457 16.0385 21.939 16.2255 21.9271 16.4155H18.0551L16.2545 13.2967L19.5334 10.0178C21.0234 11.5165 21.9457 13.5805 21.9457 15.8559ZM19.4484 23.3822L16.3612 20.295L18.0041 17.4494H21.8103C21.4959 19.4065 20.6496 21.5769 19.4484 23.3822ZM5.50413 17.4071H9.29286L10.9602 20.2949L7.87293 23.3821C6.66313 21.5639 5.81304 19.3753 5.50413 17.4071ZM5.37561 15.8559C5.37561 13.6447 6.24633 11.6332 7.66285 10.1459L10.9741 13.4572L9.29049 16.3732H5.39167C5.38145 16.1978 5.37561 16.025 5.37561 15.8559ZM13.6607 7.57083C15.5818 7.57083 17.3523 8.22831 18.7591 9.32978L15.2429 12.846H11.8252L8.42178 9.44254C9.85029 8.27338 11.6749 7.57083 13.6607 7.57083ZM11.9239 19.8963L10.1871 16.8882L11.9239 13.88H15.3974L17.1342 16.8882L15.3974 19.8963H11.9239ZM11.307 4.28867C11.307 2.58945 12.2089 1.53396 13.6607 1.53396C15.1125 1.53396 16.0143 2.58951 16.0143 4.28867C16.0143 5.09608 15.8085 5.97585 15.4553 6.71094C14.8744 6.59714 14.2745 6.53687 13.6607 6.53687C13.0469 6.53687 12.447 6.59714 11.866 6.71094C11.5128 5.97579 11.307 5.09608 11.307 4.28867ZM2.65502 11.3453C1.95302 11.2027 1.53396 10.9793 1.53396 10.7478C1.53396 9.62063 3.18215 8.66841 5.13306 8.66841C5.90342 8.66841 6.64769 8.81706 7.26393 9.08552C6.51126 9.79707 5.87696 10.6323 5.39355 11.5585C4.49991 11.548 3.45244 11.5074 2.65502 11.3453ZM2.72812 25.989C2.64401 25.989 2.56731 25.9804 2.49956 25.9623C2.39622 25.9348 2.35815 25.8896 2.33236 25.845C2.07752 25.4037 2.12575 24.8022 2.46824 24.1516C2.85147 23.4235 3.54088 22.7463 4.40965 22.2447C4.83911 21.9968 5.29441 21.8057 5.74583 21.6812C6.10765 22.4716 6.53091 23.2378 7.00677 23.9502C7.02873 23.9831 7.05111 24.0149 7.07319 24.0475C5.78384 24.7965 3.72316 25.9891 2.72812 25.989ZM13.6607 27.3071C11.7034 27.3071 9.90436 26.0375 8.48619 24.2311L11.787 20.9303H15.5343L18.8352 24.2311C17.417 26.0375 15.6179 27.3071 13.6607 27.3071ZM22.9117 22.2447C24.6013 23.2202 25.5525 24.8689 24.989 25.845C24.9632 25.8896 24.9251 25.9348 24.8218 25.9623C23.9527 26.1938 21.6465 24.8598 20.2481 24.0475C20.2702 24.0149 20.2926 23.9831 20.3145 23.9502C20.7904 23.2378 21.2136 22.4716 21.5755 21.6812C22.0269 21.8057 22.4822 21.9968 22.9117 22.2447ZM21.9277 11.5585C21.4443 10.6323 20.8101 9.79701 20.0574 9.08552C20.6736 8.81706 21.4179 8.66841 22.1883 8.66841C24.1392 8.66841 25.7873 9.62063 25.7873 10.7478C25.7873 10.9794 25.3683 11.2027 24.6663 11.3453C23.8688 11.5074 22.8214 11.548 21.9277 11.5585Z"/>
</mask>
<path d="M26.8213 10.7478C26.8213 9.00201 24.7862 7.63445 22.1883 7.63445C21.0725 7.63445 20.0245 7.89087 19.1929 8.36145C18.3778 7.75816 17.4614 7.28461 16.4742 6.97132C16.8427 6.13807 17.0484 5.19108 17.0484 4.28874C17.0483 1.67148 15.3469 0.5 13.6607 0.5C11.9745 0.5 10.273 1.67148 10.273 4.28867C10.273 5.19102 10.4788 6.138 10.8471 6.97126C9.85996 7.28461 8.9435 7.75816 8.12844 8.36145C7.29677 7.89087 6.24882 7.63439 5.13306 7.63439C2.53508 7.63439 0.5 9.00189 0.5 10.7477C0.5 11.5538 1.15577 12.0957 2.44914 12.3586C3.19213 12.5095 4.10244 12.5644 4.9349 12.5844C4.55185 13.6028 4.34165 14.7052 4.34165 15.8558C4.34165 17.3614 4.70281 19.0684 5.34131 20.7224C4.84841 20.87 4.35643 21.0815 3.89267 21.3493C2.85707 21.9471 2.02625 22.7713 1.5533 23.67C1.03961 24.6461 0.998247 25.6021 1.43695 26.362C1.6098 26.6613 1.8852 26.8687 2.23334 26.9614C2.37901 27.0002 2.53605 27.0187 2.70349 27.0187C3.90812 27.0187 5.6549 26.0673 7.62466 24.9229C7.6457 24.9107 7.66595 24.899 7.68676 24.8869C9.3063 26.941 11.2027 28.1352 13.1438 28.3161V29.9831C13.1438 30.2686 13.3752 30.5001 13.6607 30.5001C13.9462 30.5001 14.1777 30.2686 14.1777 29.9831V28.3161C16.1188 28.1352 18.0152 26.9411 19.6347 24.8869C19.6555 24.899 19.6758 24.9108 19.6969 24.923C21.6667 26.0673 23.4133 27.0187 24.6179 27.0187C24.7853 27.0187 24.9425 27.0003 25.0881 26.9615C25.4362 26.8687 25.7116 26.6614 25.8845 26.362C26.7573 24.8501 25.6786 22.6483 23.4287 21.3494C22.9649 21.0816 22.4729 20.8701 21.9801 20.7225C22.6185 19.0685 22.9797 17.3615 22.9797 15.8559C22.9797 14.7052 22.7695 13.603 22.3865 12.5845C23.219 12.5644 24.1292 12.5096 24.8722 12.3586C26.1655 12.0958 26.8213 11.5538 26.8213 10.7478ZM21.9457 15.8559C21.9457 16.0385 21.939 16.2255 21.9271 16.4155H18.0551L16.2545 13.2967L19.5334 10.0178C21.0234 11.5165 21.9457 13.5805 21.9457 15.8559ZM19.4484 23.3822L16.3612 20.295L18.0041 17.4494H21.8103C21.4959 19.4065 20.6496 21.5769 19.4484 23.3822ZM5.50413 17.4071H9.29286L10.9602 20.2949L7.87293 23.3821C6.66313 21.5639 5.81304 19.3753 5.50413 17.4071ZM5.37561 15.8559C5.37561 13.6447 6.24633 11.6332 7.66285 10.1459L10.9741 13.4572L9.29049 16.3732H5.39167C5.38145 16.1978 5.37561 16.025 5.37561 15.8559ZM13.6607 7.57083C15.5818 7.57083 17.3523 8.22831 18.7591 9.32978L15.2429 12.846H11.8252L8.42178 9.44254C9.85029 8.27338 11.6749 7.57083 13.6607 7.57083ZM11.9239 19.8963L10.1871 16.8882L11.9239 13.88H15.3974L17.1342 16.8882L15.3974 19.8963H11.9239ZM11.307 4.28867C11.307 2.58945 12.2089 1.53396 13.6607 1.53396C15.1125 1.53396 16.0143 2.58951 16.0143 4.28867C16.0143 5.09608 15.8085 5.97585 15.4553 6.71094C14.8744 6.59714 14.2745 6.53687 13.6607 6.53687C13.0469 6.53687 12.447 6.59714 11.866 6.71094C11.5128 5.97579 11.307 5.09608 11.307 4.28867ZM2.65502 11.3453C1.95302 11.2027 1.53396 10.9793 1.53396 10.7478C1.53396 9.62063 3.18215 8.66841 5.13306 8.66841C5.90342 8.66841 6.64769 8.81706 7.26393 9.08552C6.51126 9.79707 5.87696 10.6323 5.39355 11.5585C4.49991 11.548 3.45244 11.5074 2.65502 11.3453ZM2.72812 25.989C2.64401 25.989 2.56731 25.9804 2.49956 25.9623C2.39622 25.9348 2.35815 25.8896 2.33236 25.845C2.07752 25.4037 2.12575 24.8022 2.46824 24.1516C2.85147 23.4235 3.54088 22.7463 4.40965 22.2447C4.83911 21.9968 5.29441 21.8057 5.74583 21.6812C6.10765 22.4716 6.53091 23.2378 7.00677 23.9502C7.02873 23.9831 7.05111 24.0149 7.07319 24.0475C5.78384 24.7965 3.72316 25.9891 2.72812 25.989ZM13.6607 27.3071C11.7034 27.3071 9.90436 26.0375 8.48619 24.2311L11.787 20.9303H15.5343L18.8352 24.2311C17.417 26.0375 15.6179 27.3071 13.6607 27.3071ZM22.9117 22.2447C24.6013 23.2202 25.5525 24.8689 24.989 25.845C24.9632 25.8896 24.9251 25.9348 24.8218 25.9623C23.9527 26.1938 21.6465 24.8598 20.2481 24.0475C20.2702 24.0149 20.2926 23.9831 20.3145 23.9502C20.7904 23.2378 21.2136 22.4716 21.5755 21.6812C22.0269 21.8057 22.4822 21.9968 22.9117 22.2447ZM21.9277 11.5585C21.4443 10.6323 20.8101 9.79701 20.0574 9.08552C20.6736 8.81706 21.4179 8.66841 22.1883 8.66841C24.1392 8.66841 25.7873 9.62063 25.7873 10.7478C25.7873 10.9794 25.3683 11.2027 24.6663 11.3453C23.8688 11.5074 22.8214 11.548 21.9277 11.5585Z" fill="black"/>
<path d="M26.8213 10.7478C26.8213 9.00201 24.7862 7.63445 22.1883 7.63445C21.0725 7.63445 20.0245 7.89087 19.1929 8.36145C18.3778 7.75816 17.4614 7.28461 16.4742 6.97132C16.8427 6.13807 17.0484 5.19108 17.0484 4.28874C17.0483 1.67148 15.3469 0.5 13.6607 0.5C11.9745 0.5 10.273 1.67148 10.273 4.28867C10.273 5.19102 10.4788 6.138 10.8471 6.97126C9.85996 7.28461 8.9435 7.75816 8.12844 8.36145C7.29677 7.89087 6.24882 7.63439 5.13306 7.63439C2.53508 7.63439 0.5 9.00189 0.5 10.7477C0.5 11.5538 1.15577 12.0957 2.44914 12.3586C3.19213 12.5095 4.10244 12.5644 4.9349 12.5844C4.55185 13.6028 4.34165 14.7052 4.34165 15.8558C4.34165 17.3614 4.70281 19.0684 5.34131 20.7224C4.84841 20.87 4.35643 21.0815 3.89267 21.3493C2.85707 21.9471 2.02625 22.7713 1.5533 23.67C1.03961 24.6461 0.998247 25.6021 1.43695 26.362C1.6098 26.6613 1.8852 26.8687 2.23334 26.9614C2.37901 27.0002 2.53605 27.0187 2.70349 27.0187C3.90812 27.0187 5.6549 26.0673 7.62466 24.9229C7.6457 24.9107 7.66595 24.899 7.68676 24.8869C9.3063 26.941 11.2027 28.1352 13.1438 28.3161V29.9831C13.1438 30.2686 13.3752 30.5001 13.6607 30.5001C13.9462 30.5001 14.1777 30.2686 14.1777 29.9831V28.3161C16.1188 28.1352 18.0152 26.9411 19.6347 24.8869C19.6555 24.899 19.6758 24.9108 19.6969 24.923C21.6667 26.0673 23.4133 27.0187 24.6179 27.0187C24.7853 27.0187 24.9425 27.0003 25.0881 26.9615C25.4362 26.8687 25.7116 26.6614 25.8845 26.362C26.7573 24.8501 25.6786 22.6483 23.4287 21.3494C22.9649 21.0816 22.4729 20.8701 21.9801 20.7225C22.6185 19.0685 22.9797 17.3615 22.9797 15.8559C22.9797 14.7052 22.7695 13.603 22.3865 12.5845C23.219 12.5644 24.1292 12.5096 24.8722 12.3586C26.1655 12.0958 26.8213 11.5538 26.8213 10.7478ZM21.9457 15.8559C21.9457 16.0385 21.939 16.2255 21.9271 16.4155H18.0551L16.2545 13.2967L19.5334 10.0178C21.0234 11.5165 21.9457 13.5805 21.9457 15.8559ZM19.4484 23.3822L16.3612 20.295L18.0041 17.4494H21.8103C21.4959 19.4065 20.6496 21.5769 19.4484 23.3822ZM5.50413 17.4071H9.29286L10.9602 20.2949L7.87293 23.3821C6.66313 21.5639 5.81304 19.3753 5.50413 17.4071ZM5.37561 15.8559C5.37561 13.6447 6.24633 11.6332 7.66285 10.1459L10.9741 13.4572L9.29049 16.3732H5.39167C5.38145 16.1978 5.37561 16.025 5.37561 15.8559ZM13.6607 7.57083C15.5818 7.57083 17.3523 8.22831 18.7591 9.32978L15.2429 12.846H11.8252L8.42178 9.44254C9.85029 8.27338 11.6749 7.57083 13.6607 7.57083ZM11.9239 19.8963L10.1871 16.8882L11.9239 13.88H15.3974L17.1342 16.8882L15.3974 19.8963H11.9239ZM11.307 4.28867C11.307 2.58945 12.2089 1.53396 13.6607 1.53396C15.1125 1.53396 16.0143 2.58951 16.0143 4.28867C16.0143 5.09608 15.8085 5.97585 15.4553 6.71094C14.8744 6.59714 14.2745 6.53687 13.6607 6.53687C13.0469 6.53687 12.447 6.59714 11.866 6.71094C11.5128 5.97579 11.307 5.09608 11.307 4.28867ZM2.65502 11.3453C1.95302 11.2027 1.53396 10.9793 1.53396 10.7478C1.53396 9.62063 3.18215 8.66841 5.13306 8.66841C5.90342 8.66841 6.64769 8.81706 7.26393 9.08552C6.51126 9.79707 5.87696 10.6323 5.39355 11.5585C4.49991 11.548 3.45244 11.5074 2.65502 11.3453ZM2.72812 25.989C2.64401 25.989 2.56731 25.9804 2.49956 25.9623C2.39622 25.9348 2.35815 25.8896 2.33236 25.845C2.07752 25.4037 2.12575 24.8022 2.46824 24.1516C2.85147 23.4235 3.54088 22.7463 4.40965 22.2447C4.83911 21.9968 5.29441 21.8057 5.74583 21.6812C6.10765 22.4716 6.53091 23.2378 7.00677 23.9502C7.02873 23.9831 7.05111 24.0149 7.07319 24.0475C5.78384 24.7965 3.72316 25.9891 2.72812 25.989ZM13.6607 27.3071C11.7034 27.3071 9.90436 26.0375 8.48619 24.2311L11.787 20.9303H15.5343L18.8352 24.2311C17.417 26.0375 15.6179 27.3071 13.6607 27.3071ZM22.9117 22.2447C24.6013 23.2202 25.5525 24.8689 24.989 25.845C24.9632 25.8896 24.9251 25.9348 24.8218 25.9623C23.9527 26.1938 21.6465 24.8598 20.2481 24.0475C20.2702 24.0149 20.2926 23.9831 20.3145 23.9502C20.7904 23.2378 21.2136 22.4716 21.5755 21.6812C22.0269 21.8057 22.4822 21.9968 22.9117 22.2447ZM21.9277 11.5585C21.4443 10.6323 20.8101 9.79701 20.0574 9.08552C20.6736 8.81706 21.4179 8.66841 22.1883 8.66841C24.1392 8.66841 25.7873 9.62063 25.7873 10.7478C25.7873 10.9794 25.3683 11.2027 24.6663 11.3453C23.8688 11.5074 22.8214 11.548 21.9277 11.5585Z" stroke="black" mask="url(#path-1-outside-1_101_39)"/>
</svg>
