<svg width="30" height="30" viewBox="0 0 30 30" fill="none" xmlns="http://www.w3.org/2000/svg">
<g clip-path="url(#clip0_66_50)">
<path d="M18.477 10.228C18.9507 10.4758 19.3388 10.4866 19.6811 10.3608C20.003 10.2424 20.5044 9.94102 20.8168 9.66455L20.8188 9.6626C21.6195 8.95657 22.2464 7.84842 22.5268 6.53662L22.5786 6.27197C22.6638 5.78127 22.6832 5.55982 22.6811 4.99854V4.99463C22.6811 3.90916 22.534 3.20539 22.2602 2.61572C21.8194 1.6684 21.1859 1.16969 20.5444 1.02588C20.4923 1.01491 20.3806 1.00211 20.2436 1.00049C20.179 0.999727 20.1205 1.00179 20.0737 1.00537C20.0408 1.00788 20.0218 1.01021 20.0151 1.01123C18.7668 1.32192 17.6497 2.43417 17.0766 4.36572L17.0756 4.3667C16.808 5.26856 16.6965 6.38845 16.7787 7.15186V7.15381C16.9375 8.64337 17.5626 9.66095 18.3227 10.1392L18.477 10.228Z" stroke="currentColor" stroke-width="2"/>
<path d="M10.6192 10.4574C10.8563 10.467 10.9852 10.446 11.168 10.3851V10.3842C11.4827 10.2795 11.7353 10.1229 11.9942 9.85388C12.4516 9.37871 12.8059 8.63493 12.9493 7.67224L12.9971 7.24646C13.0317 6.79128 12.9915 6.05993 12.8897 5.49255V5.4906C12.471 3.12242 11.2089 1.6094 9.78815 1.18396C9.5424 1.11204 9.31324 1.10063 9.12994 1.13318H9.13092C8.59405 1.23061 7.9339 1.72012 7.50201 2.62341L7.50104 2.62439C7.28204 3.08132 7.16728 3.52702 7.11237 4.32361L7.11139 4.32751C7.09382 4.5698 7.09672 4.94553 7.11432 5.25916L7.13678 5.54431C7.35446 7.53698 8.2379 9.10664 9.44635 9.94763L9.44733 9.94861C9.6751 10.1076 10.0903 10.3202 10.337 10.4056C10.392 10.4247 10.4224 10.4349 10.4424 10.4408C10.4511 10.4433 10.4566 10.4441 10.459 10.4447C10.4606 10.4451 10.4616 10.4456 10.462 10.4457C10.4655 10.4463 10.4846 10.4502 10.6202 10.4564L10.6192 10.4574Z" stroke="currentColor" stroke-width="2"/>
<path d="M25.1366 18.3298L25.1395 18.3289C25.8324 18.2661 26.4863 17.9794 27.1171 17.3953L27.3856 17.1267C28.1753 16.2774 28.7413 15.0729 28.9257 13.7898V13.7859C28.9712 13.4771 29.0039 12.8268 28.9921 12.6082C28.9244 11.4261 28.3529 10.5384 27.745 10.1921L27.6229 10.1306C27.3637 10.0158 27.0993 9.98574 26.8925 10.0203H26.8934C25.7829 10.2101 24.7231 10.9821 23.9833 12.3191L23.8397 12.5935C23.4995 13.2857 23.3293 13.8326 23.1903 14.7517H23.1913C23.1457 15.0567 23.1385 15.1431 23.1385 15.5144C23.1386 15.9546 23.1599 16.1236 23.2382 16.4412V16.4421C23.4311 17.2281 23.8329 17.7893 24.2382 18.072L24.411 18.1755C24.6914 18.3165 24.8984 18.352 25.1366 18.3298Z" stroke="currentColor" stroke-width="2"/>
<path d="M4.64355 18.7535C5.20801 18.9107 5.68314 18.7933 6.16699 18.2906C6.57037 17.8716 6.85053 17.1854 6.85059 16.0602C6.85059 15.6166 6.83256 15.4037 6.75977 15.0045L6.75879 15.0026C6.51255 13.6353 5.76083 12.3281 4.75977 11.4889C4.27641 11.0837 3.6722 10.7604 3.40625 10.692H3.4043C3.1749 10.6324 2.85731 10.6192 2.63379 10.6578H2.63477C1.97656 10.7726 1.42171 11.2557 1.2207 11.8776L1.21973 11.8785L1.1582 12.0992C1.09805 12.3439 1.04471 12.6524 1.01855 12.9479V12.9489C0.896492 14.3218 1.37004 15.9207 2.26465 17.0846L2.26367 17.0856C2.92254 17.9408 3.74852 18.5039 4.64258 18.7545L4.64355 18.7535Z" stroke="currentColor" stroke-width="2"/>
<path d="M21.6104 28.8544C22.8851 29.2294 23.8995 28.7675 24.2803 28.1122L24.3477 27.9784C24.4827 27.662 24.5415 26.9549 24.3594 26.1786C24.1825 25.4287 23.6192 24.1075 23.0762 23.2206V23.2196C21.4441 20.5497 20.3321 19.1559 19.0919 18.1151C17.9205 17.134 17.0217 16.7311 15.9366 16.6053H15.9346C15.6402 16.5708 15.0435 16.5703 14.7393 16.6053H14.7403C14.1212 16.6774 13.5038 16.8376 12.8878 17.0917L12.6231 17.2059C11.5505 17.6991 10.5154 18.5249 9.8653 19.3905C8.3005 21.4758 7.23938 23.7004 6.81354 25.704H6.81451L6.6944 26.2059C6.58915 26.6028 6.60607 27.0712 6.74518 27.4716C6.98104 28.1506 7.47856 28.6412 8.04694 28.8397L8.04596 28.8407C8.32255 28.9368 8.8982 28.9696 9.68951 28.7977L9.69244 28.7968C10.1789 28.6928 10.5428 28.5773 11.7471 28.1141V28.1132C13.4723 27.4466 14.0338 27.2887 15.2921 27.1669H15.293C15.8313 27.1151 15.985 27.1091 16.4083 27.1415L16.4092 27.1405C17.4594 27.2179 18.2805 27.4673 19.6788 28.0604C20.2778 28.3145 20.7408 28.5084 21.0733 28.6444C21.2397 28.7124 21.3696 28.7645 21.4659 28.8016C21.559 28.8375 21.5988 28.8504 21.6046 28.8524L21.6104 28.8544Z" stroke="currentColor" stroke-width="2"/>
</g>
<defs>
<clipPath id="clip0_66_50">
<rect width="30" height="30" fill="white"/>
</clipPath>
</defs>
</svg>
