<svg width="35" height="35" viewBox="0 0 35 35" fill="none" xmlns="http://www.w3.org/2000/svg">
<path d="M13.125 30.6249V19.8333C13.125 19.0165 13.125 18.6082 13.2839 18.2962C13.4238 18.0218 13.6469 17.7987 13.9213 17.6589C14.2332 17.4999 14.6416 17.4999 15.4583 17.4999H19.5417C20.3584 17.4999 20.7668 17.4999 21.0787 17.6589C21.3531 17.7987 21.5762 18.0218 21.7161 18.2962C21.875 18.6082 21.875 19.0165 21.875 19.8333V30.6249M16.0675 4.0308L6.17661 11.7237C5.51545 12.2379 5.18487 12.495 4.94671 12.8171C4.73574 13.1023 4.57859 13.4236 4.48296 13.7653C4.375 14.1509 4.375 14.5697 4.375 15.4073V25.9583C4.375 27.5918 4.375 28.4085 4.6929 29.0324C4.97253 29.5812 5.41872 30.0274 5.96753 30.307C6.59144 30.6249 7.40818 30.6249 9.04167 30.6249H25.9583C27.5918 30.6249 28.4086 30.6249 29.0325 30.307C29.5813 30.0274 30.0275 29.5812 30.3071 29.0324C30.625 28.4085 30.625 27.5918 30.625 25.9583V15.4073C30.625 14.5697 30.625 14.1509 30.517 13.7653C30.4214 13.4236 30.2643 13.1023 30.0533 12.8171C29.8151 12.495 29.4846 12.2379 28.8234 11.7237L18.9325 4.0308C18.4202 3.63231 18.164 3.43306 17.8811 3.35647C17.6315 3.28889 17.3685 3.28889 17.1189 3.35647C16.836 3.43306 16.5798 3.63231 16.0675 4.0308Z" stroke="black" stroke-width="2" stroke-linecap="round" stroke-linejoin="round"/>
</svg>
